<?xml version="1.0" encoding="utf-8"?>
<svg version="1.0" xmlns="http://www.w3.org/2000/svg" xmlns:xlink="http://www.w3.org/1999/xlink" x="0px" y="0px" width="100px"
	 height="100px" viewBox="0 0 100 100" enable-background="new 0 0 100 100" xml:space="preserve">
	<path fill="#A01D23" d="M100,50c0-1.8-0.9-3.7-2.4-4.7c-0.6-0.4-0.9-1-1-1.6c-0.5-3.5-1.4-6.9-2.7-10.3c-0.1-0.4-0.3-0.8-0.4-1.1
		c-0.3-0.6-0.1-1.2,0-1.8c0.7-1.8,0.7-3.7-0.3-5.3c-0.9-1.6-2.7-2.8-4.6-3c-0.6,0-1.2-0.4-1.6-1c-1.2-1.6-2.5-3-3.9-4.4c0,0,0,0,0,0
		c-1.4-1.3-2.8-2.6-4.2-3.8c-0.7-0.6-0.9-1.3-1-1.9c0-0.3-0.1-0.4-0.1-0.7c-0.4-1.5-1.3-2.8-2.8-3.6c-1.3-0.7-3-1-4.4-0.6
		c-0.3,0-0.4,0.1-0.7,0.3c-0.4,0.1-1.3,0.4-1.9,0.1C64.1,5,60.2,4,56.4,3.4c-0.6-0.1-1.2-0.4-1.6-1C53.7,0.9,51.9,0,50,0
		c-1.9,0-3.7,0.9-4.7,2.4c-0.4,0.6-1,0.9-1.6,1C39.6,4,35.8,5,32.2,6.5c-0.7,0.3-1.5,0.1-1.9-0.1c-0.3-0.1-0.4-0.1-0.7-0.3
		c-1.5-0.4-3.1-0.1-4.4,0.6s-2.4,2.1-2.8,3.6c0,0.3-0.1,0.4-0.1,0.7c0,0.6-0.3,1.3-1,1.9c-1.5,1.2-2.9,2.4-4.2,3.8c0,0,0,0,0,0
		c-1.4,1.4-2.7,2.9-3.9,4.4c-0.4,0.6-1,0.9-1.6,1c-1.9,0.1-3.6,1.3-4.6,3c-0.9,1.6-1,3.7-0.3,5.3c0.3,0.6,0.3,1.2,0,1.8
		c-0.1,0.4-0.3,0.8-0.4,1.1c-1.2,3.4-2.2,6.8-2.7,10.3c-0.1,0.6-0.4,1.2-1,1.6C0.9,46.4,0,48.2,0,50l0,0c0,1.8,0.9,3.7,2.4,4.7
		c0.6,0.4,0.9,1,1,1.6c0.5,3.6,1.4,7,2.7,10.3c0,0,0,0,0,0c0.1,0.4,0.3,0.8,0.4,1.1c0.3,0.6,0.1,1.2,0,1.8c-0.7,1.8-0.7,3.7,0.3,5.3
		c1.2,1.9,3.3,3.1,5.5,3c1.4,1.9,3,3.7,4.7,5.4c0,0,0,0,0,0c1.3,1.3,2.7,2.6,4.2,3.8c0.7,0.6,0.9,1.3,1,1.9c0,0.3,0.1,0.4,0.1,0.7
		c0.4,1.5,1.3,2.8,2.8,3.6c1.3,0.7,3,1,4.4,0.6c0.3,0,0.4-0.1,0.7-0.3c0.6-0.1,1.3-0.4,1.9-0.1c3.7,1.5,7.5,2.5,11.4,3.1
		c0.6,0.1,1.2,0.4,1.6,1c1.2,1.5,3,2.4,4.7,2.4c1.8,0,3.7-0.9,4.7-2.4c0.4-0.6,1-0.9,1.6-1c4-0.6,7.8-1.6,11.4-3.1
		c0.7-0.3,1.5-0.1,1.9,0.1c0.3,0.1,0.4,0.1,0.7,0.3c1.5,0.4,3.1,0.1,4.4-0.6c1.3-0.7,2.4-2.1,2.8-3.6c0-0.3,0.1-0.4,0.1-0.7
		c0-0.6,0.3-1.3,1-1.9c1.5-1.2,2.9-2.4,4.2-3.8c0,0,0,0,0,0c1.7-1.7,3.2-3.5,4.6-5.4c2.2,0.1,4.4-1,5.5-3c0.9-1.6,1-3.7,0.3-5.3
		c-0.3-0.6-0.3-1.2,0-1.8c0.1-0.4,0.3-0.8,0.4-1.1c0,0,0,0,0,0c1.2-3.4,2.2-6.8,2.7-10.3c0.1-0.6,0.4-1.2,1-1.6
		C99.1,53.6,100,51.8,100,50L100,50L100,50z"/>
</svg>
